<svg width="120" height="120" viewBox="0 0 120 120" fill="none" xmlns="http://www.w3.org/2000/svg">
  <rect width="120" height="120" rx="60" fill="url(#gradient)"/>
  <path d="M60 40C66.627 40 72 34.627 72 28C72 21.373 66.627 16 60 16C53.373 16 48 21.373 48 28C48 34.627 53.373 40 60 40Z" fill="white" opacity="0.9"/>
  <path d="M60 104C78.778 104 94 88.778 94 70C94 51.222 78.778 36 60 36C41.222 36 26 51.222 26 70C26 88.778 41.222 104 60 104Z" fill="white" opacity="0.9"/>
  <circle cx="48" cy="65" r="4" fill="#333"/>
  <circle cx="72" cy="65" r="4" fill="#333"/>
  <path d="M48 80C48 80 54 86 60 86C66 86 72 80 72 80" stroke="#333" stroke-width="2" stroke-linecap="round"/>
  <defs>
    <linearGradient id="gradient" x1="0" y1="0" x2="120" y2="120" gradientUnits="userSpaceOnUse">
      <stop stop-color="#6DCFF6"/>
      <stop offset="1" stop-color="#0099DA"/>
    </linearGradient>
  </defs>
</svg>